# xmcd CD database file
#
# Track frame offsets:
#	150
#	20145
#	42047
#	61990
#
# Disc length: 1116 seconds
#
# Revision: 0
# Processed by: cddbd v1.5.1PL0 Copyright (c) Steve Scherf et al.
# Submitted via: CDex 1.51
#
DISCID=2d045a04
DTITLE=JAM project featuring Rica Matsumoto - ＬＡＤＹ ＦＩＧＨＴＥＲ！
DYEAR=2001
DGENRE=Game
TTITLE0=ＬＡＤＹ ＦＩＧＨＴＥＲ！
TTITLE1=運命の糸
TTITLE2=ＬＡＤＹ ＦＩＧＨＴＥＲ！（off vocal version)
TTITLE3=運命の糸（off vocal version)
EXTD=YEAR: 2001
EXTT0=
EXTT1=
EXTT2=
EXTT3=
PLAYORDER=
